<?xml version="1.0" encoding="UTF-8"?>
<svg width="16px" height="16px" viewBox="0 0 16 16" version="1.1" xmlns="http://www.w3.org/2000/svg" xmlns:xlink="http://www.w3.org/1999/xlink">
    <!-- Generator: Sketch 55.1 (78136) - https://sketchapp.com -->
    <title>arrow-left</title>
    <desc>Created with Sketch.</desc>
    <g id="Welcome" stroke="none" stroke-width="1" fill="none" fill-rule="evenodd">
        <g id="Desktop-HD" transform="translate(-332.000000, -22.000000)" fill="#000000" fill-rule="nonzero">
            <g id="arrow-left" transform="translate(332.000000, 22.000000)">
                <path d="M8.21071429,15.8522162 L8.91782143,15.1387387 C9.08517857,14.9698739 9.08517857,14.6960721 8.91782143,14.5271712 L3.37746429,8.93693694 L15.5714286,8.93693694 C15.8081071,8.93693694 16,8.74331532 16,8.5045045 L16,7.4954955 C16,7.25668468 15.8081071,7.06306306 15.5714286,7.06306306 L3.37746429,7.06306306 L8.91782143,1.47279279 C9.08517857,1.30392793 9.08517857,1.03012613 8.91782143,0.861225225 L8.21071429,0.147783784 C8.04335714,-0.0210810811 7.772,-0.0210810811 7.60460714,0.147783784 L0.125535714,7.69423423 C-0.0418214286,7.8630991 -0.0418214286,8.1369009 0.125535714,8.3058018 L7.60460714,15.8522523 C7.77196429,16.0211171 8.04332143,16.0211171 8.21071429,15.8522162 Z" id="Path"></path>
            </g>
        </g>
    </g>
</svg>