<?xml version="1.0" encoding="UTF-8"?>
<svg width="16px" height="19px" viewBox="0 0 16 19" version="1.1" xmlns="http://www.w3.org/2000/svg" xmlns:xlink="http://www.w3.org/1999/xlink">
    <!-- Generator: Sketch 55.1 (78136) - https://sketchapp.com -->
    <title>arrow-to-bottom</title>
    <desc>Created with Sketch.</desc>
    <g id="Welcome" stroke="none" stroke-width="1" fill="none" fill-rule="evenodd">
        <g id="Desktop-HD" transform="translate(-1632.000000, -21.000000)" fill="#000000" fill-rule="nonzero">
            <g id="arrow-to-bottom" transform="translate(1632.000000, 21.000000)">
                <path d="M14.5208333,8.48638393 L8.35416667,14.7801339 C8.15833333,14.9794643 7.84166667,14.9794643 7.64583333,14.7801339 L1.47916667,8.48638393 C1.28333333,8.28705357 1.28333333,7.96473214 1.47916667,7.76540179 L2.29583333,6.93415179 C2.49583333,6.73058036 2.81666667,6.73482143 3.00833333,6.94263393 L6.9125,11.0607143 L6.9125,0.508928571 C6.9125,0.229017857 7.1375,0 7.4125,0 L8.57916667,0 C8.85416667,0 9.07916667,0.229017857 9.07916667,0.508928571 L9.07916667,11.0607143 L12.9833333,6.94263393 C13.1791667,6.7390625 13.5,6.73482143 13.6958333,6.93415179 L14.5125,7.76540179 C14.7166667,7.96473214 14.7166667,8.28705357 14.5208333,8.48638393 L14.5208333,8.48638393 Z M15.5,16.7946429 L0.5,16.7946429 C0.225,16.7946429 0,17.0236607 0,17.3035714 L0,18.4910714 C0,18.7709821 0.225,19 0.5,19 L15.5,19 C15.775,19 16,18.7709821 16,18.4910714 L16,17.3035714 C16,17.0236607 15.775,16.7946429 15.5,16.7946429 Z" id="Shape"></path>
            </g>
        </g>
    </g>
</svg>